<?xml version="1.0" encoding="UTF-8"?>
<svg width="320px" height="160px" viewBox="0 0 320 160" version="1.1" xmlns="http://www.w3.org/2000/svg" xmlns:xlink="http://www.w3.org/1999/xlink">
    <!-- Generator: Sketch 44.1 (41455) - http://www.bohemiancoding.com/sketch -->
    <title>btc_background</title>
    <desc>Created with Sketch.</desc>
    <defs></defs>
    <g id="20170530" stroke="none" stroke-width="1" fill="none" fill-rule="evenodd">
        <g id="btc_background">
            <rect fill="#144AE1" x="0" y="0" width="320" height="160"></rect>
            <g id="Graphic" transform="translate(83.000000, 24.000000)">
                <g id="Coin-Copy" transform="translate(76.256648, 64.555485) rotate(-20.000000) translate(-76.256648, -64.555485) translate(26.256648, 14.055485)">
                    <ellipse id="Oval" fill="#FFFFFF" cx="50.9933775" cy="50.5" rx="47.6821192" ry="47.8421053"></ellipse>
                    <g id="Btc">
                        <path d="M97.8374698,60.5784914 C97.8374698,60.1316219 85.6935358,51.6402017 61.4056677,35.1042308 L58.6605037,48.3356543 L61.1650557,55.6381307 L60.9604444,63.592165 L50.7695245,66.026019 L37.8607829,67.6967503 L54.3623282,99.0909391 L76.5496399,91.3434961 L80.5343201,88.0866217 L87.8802768,80.6140544 C94.5184055,67.703882 97.8374698,61.025361 97.8374698,60.5784914 Z" id="Path-13" fill="#D6DBE7"></path>
                        <path d="M99.4701987,57.8092105 C99.9337748,54.5532895 100.066225,51.2309211 99.9337748,47.975 C99.8013245,44.7190789 99.2715232,41.5960526 98.5430464,38.4065789 C97.7483444,35.2835526 96.6887417,32.2934211 95.3642384,29.3697368 C94.0397351,26.4460526 92.4503311,23.7217105 90.5298013,21.1967105 C88.6754967,18.6052632 86.4900662,16.2131579 84.1059603,13.9539474 C81.7218543,11.7611842 79.0728477,9.70131579 76.3576159,7.97368421 C70.6622517,4.45197368 64.1059603,2.05986842 57.5496689,1.12960526 C54.3046358,0.664473684 50.9933775,0.531578947 47.7483444,0.664473684 C44.5695364,0.863815789 41.3907285,1.32894737 38.2119205,2.05986842 C35.0993377,2.85723684 32.1192053,3.98684211 29.205298,5.31578947 C26.2913907,6.64473684 23.5761589,8.23947368 21.0596026,10.1664474 C18.4768212,12.0269737 16.0927152,14.2197368 13.8410596,16.6118421 C11.6556291,19.0039474 9.66887417,21.5953947 7.8807947,24.3861842 C6.1589404,27.2434211 4.70198675,30.3 3.50993377,33.4894737 C2.38410596,36.6789474 1.52317881,40.0013158 0.993377483,43.2572368 C0.662251656,46.5131579 0.463576159,49.8355263 0.662251656,53.0914474 C0.860927152,56.2809211 1.32450331,59.4703947 2.05298013,62.6598684 C2.84768212,65.7828947 3.90728477,68.7730263 5.23178808,71.6967105 C6.55629139,74.6203947 8.14569536,77.3447368 10.0662252,79.8697368 C11.9205298,82.4611842 14.1059603,84.8532895 16.4900662,87.1125 C18.8741722,89.3052632 21.5231788,91.3651316 24.2384106,93.0927632 C27.0860927,94.8203947 30.1324503,96.2822368 33.3112583,97.4782895 C36.4900662,98.6078947 39.8013245,99.4717105 43.0463576,100.003289 C46.2913907,100.468421 49.602649,100.601316 52.8476821,100.468421 C56.0927152,100.335526 59.205298,99.8039474 62.384106,99.0730263 C65.4966887,98.2756579 68.4768212,97.2125 71.3907285,95.8835526 C74.3046358,94.5546053 77.0198675,92.9598684 79.5364238,91.0328947 C82.1192053,89.1723684 84.5033113,86.9796053 86.7549669,84.5875 C88.9403974,82.1953947 90.9933775,79.5375 92.7152318,76.8131579 C94.4370861,73.9559211 95.8940397,70.8993421 97.0860927,67.7098684 C98.1456954,64.3875 99.0066225,61.0651316 99.4701987,57.8092105 Z M92.7152318,68.0421053 L86.8874172,65.9157895 C86.3576159,67.1782895 85.7615894,68.4407895 85.0993377,69.7032895 L90.397351,72.9592105 C90.0662252,73.5572368 89.8013245,74.0888158 89.4701987,74.6203947 C89.1390728,75.1519737 88.807947,75.6835526 88.4768212,76.2151316 L83.1788079,72.9592105 C82.5827815,73.7565789 82.0529801,74.4875 81.5231788,75.2184211 C81.2582781,75.5506579 80.9933775,75.8164474 80.794702,76.1486842 L85.3642384,80.3348684 C84.9668874,80.8 84.5033113,81.3315789 84.0397351,81.7967105 C83.5761589,82.2618421 83.1125828,82.7269737 82.7152318,83.1256579 L78.1456954,78.9394737 C77.3509934,79.7368421 76.5562914,80.4013158 75.6291391,81.1322368 C75.4966887,81.2651316 75.2980132,81.3980263 75.2317881,81.4644737 L78.8741722,86.5144737 C78.410596,86.9131579 77.8807947,87.3118421 77.3509934,87.6440789 C76.8874172,88.0427632 76.2913907,88.375 75.7615894,88.7736842 L72.0529801,83.7236842 C71.8543046,83.8565789 71.7218543,83.9230263 71.5231788,84.0559211 C70.5960265,84.5875 69.8013245,85.1190789 68.807947,85.6506579 L71.3907285,91.2986842 C70.8609272,91.6309211 70.2649007,91.8967105 69.6688742,92.1625 C69.0728477,92.4282895 68.4768212,92.6276316 67.8807947,92.9598684 L65.2980132,87.3118421 C64.3708609,87.7105263 63.4437086,88.0427632 62.4503311,88.3085526 C62.1854305,88.375 61.986755,88.5078947 61.6556291,88.5743421 L63.1125828,94.6210526 C62.4503311,94.8203947 61.8543046,94.9532895 61.2582781,95.1526316 C60.6622517,95.2855263 60,95.4848684 59.4039735,95.6177632 L57.8807947,89.5710526 C57.8145695,89.6375 57.615894,89.6375 57.615894,89.6375 C56.4900662,89.8368421 55.2980132,90.0361842 54.1059603,90.1026316 L54.3708609,96.2822368 C53.7086093,96.3486842 53.1125828,96.4151316 52.4503311,96.4151316 C51.7880795,96.4151316 51.192053,96.4151316 50.5298013,96.4815789 L50.2649007,90.3019737 C49.8013245,90.2355263 49.3377483,90.3019737 48.8741722,90.3019737 C48.013245,90.3019737 47.1523179,90.2355263 46.2913907,90.1026316 L45.3642384,96.2822368 C44.7682119,96.2157895 44.0397351,96.1493421 43.5099338,96.0164474 C42.9139073,95.95 42.2516556,95.8171053 41.6556291,95.6842105 L42.5827815,89.5046053 C41.192053,89.2388158 39.8675497,88.8401316 38.5430464,88.4414474 L36.4238411,94.2888158 C35.2317881,93.8901316 34.0397351,93.4914474 32.781457,92.9598684 L34.9006623,87.1125 C33.6423841,86.5809211 32.384106,85.9828947 31.1258278,85.3184211 L27.8807947,90.6342105 C27.2847682,90.3019737 26.7549669,90.0361842 26.2251656,89.7039474 C25.6953642,89.3717105 25.1655629,89.0394737 24.6357616,88.7072368 L27.8807947,83.3914474 C27.0860927,82.7934211 26.2913907,82.2618421 25.6291391,81.7302632 C25.3642384,81.4644737 25.0331126,81.2651316 24.7682119,81.0657895 L20.5960265,85.6506579 C20.1324503,85.2519737 19.602649,84.7868421 19.1390728,84.3217105 C18.6754967,83.8565789 18.2119205,83.3914474 17.8145695,82.9927632 L21.986755,78.4078947 C21.1258278,77.5440789 20.2649007,76.4809211 19.4701987,75.4842105 L14.4370861,79.1388158 C14.0397351,78.6736842 13.6423841,78.1421053 13.3112583,77.6105263 C12.9139073,77.1453947 12.5827815,76.5473684 12.1854305,76.0157895 L17.218543,72.2947368 C16.5562914,71.2980263 15.8940397,70.1019737 15.2980132,69.0388158 L9.66887417,71.6302632 C9.33774834,71.0986842 9.07284768,70.5006579 8.80794702,69.9026316 C8.54304636,69.3046053 8.34437086,68.7065789 8.01324503,68.1085526 L13.6423841,65.5171053 C13.1788079,64.3210526 12.7152318,63.125 12.384106,61.9289474 C12.384106,61.9289474 12.384106,61.9289474 12.384106,61.8625 L6.35761589,63.3243421 C6.1589404,62.6598684 6.02649007,62.0618421 5.82781457,61.4638158 C5.69536424,60.8657895 5.49668874,60.2013158 5.36423841,59.6032895 L11.3907285,58.075 C11.3245033,58.0085526 11.3907285,57.9421053 11.3245033,57.8092105 C11.1258278,56.6131579 10.9271523,55.4835526 10.794702,54.2210526 L4.63576159,54.4868421 C4.56953642,53.8223684 4.50331126,53.2243421 4.50331126,52.5598684 C4.43708609,51.8953947 4.50331126,51.2973684 4.43708609,50.6328947 L10.5960265,50.3671053 C10.5960265,50.1013158 10.5960265,49.7690789 10.5960265,49.5032895 C10.5960265,48.4401316 10.6622517,47.3769737 10.7284768,46.3802632 L4.56953642,45.45 C4.63576159,44.8519737 4.70198675,44.1210526 4.83443709,43.5894737 C4.90066225,42.9914474 5.03311258,42.3269737 5.16556291,41.7289474 L11.3245033,42.6592105 C11.589404,41.2638158 11.986755,39.9348684 12.384106,38.6059211 L6.55629139,36.4796053 C6.75496689,35.8815789 6.95364238,35.2835526 7.15231788,34.6190789 C7.35099338,34.0210526 7.54966887,33.4230263 7.8807947,32.825 L13.7086093,34.9513158 C14.2384106,33.6888158 14.8344371,32.4263158 15.4966887,31.1638158 L10.1986755,27.9078947 C10.5298013,27.3098684 10.794702,26.7782895 11.1258278,26.2467105 C11.4569536,25.7151316 11.7880795,25.1835526 12.1192053,24.6519737 L17.4172185,27.9078947 C18.013245,27.0440789 18.6754967,26.2467105 19.3377483,25.4493421 C19.4701987,25.25 19.7350993,25.0506579 19.8675497,24.7184211 L15.2980132,20.5322368 C15.6953642,20.0671053 16.1589404,19.5355263 16.6225166,19.0703947 C17.0860927,18.6052632 17.5496689,18.1401316 17.9470199,17.7414474 L22.5165563,21.9276316 C23.3112583,21.1302632 24.1059603,20.3993421 25.0331126,19.7348684 C25.1655629,19.6019737 25.2317881,19.5355263 25.4304636,19.4026316 L21.8543046,14.4190789 C22.3178808,14.0203947 22.8476821,13.6217105 23.3774834,13.2894737 C23.8410596,12.8907895 24.4370861,12.5585526 24.9668874,12.1598684 L28.6754967,17.2098684 C29.6688742,16.5453947 30.8609272,15.8809211 31.9205298,15.2828947 L29.3377483,9.63486842 C29.8675497,9.30263158 30.4635762,9.03684211 31.0596026,8.77105263 C31.6556291,8.50526316 32.2516556,8.30592105 32.8476821,7.97368421 L35.4304636,13.6217105 C36.6225166,13.1565789 37.8145695,12.6914474 39.0066225,12.3592105 L37.5496689,6.3125 C38.2119205,6.11315789 38.807947,5.98026316 39.4039735,5.78092105 C40,5.64802632 40.6622517,5.44868421 41.2582781,5.31578947 L42.781457,11.3625 C42.9139073,11.3625 43.0463576,11.2960526 43.1788079,11.2960526 C44.3046358,11.0967105 45.4304636,10.8973684 46.6225166,10.7644737 L46.2251656,4.65131579 C46.8874172,4.58486842 47.4834437,4.51842105 48.1456954,4.51842105 C48.807947,4.51842105 49.4039735,4.51842105 50.0662252,4.45197368 L50.3311258,10.6315789 C50.5960265,10.6315789 50.8609272,10.6315789 51.1258278,10.6315789 C52.1854305,10.6315789 53.3112583,10.6980263 54.3046358,10.8309211 L55.2317881,4.65131579 C55.8278146,4.71776316 56.5562914,4.78421053 57.0860927,4.91710526 C57.6821192,4.98355263 58.3443709,5.11644737 58.9403974,5.24934211 L58.013245,11.4289474 C59.4039735,11.6947368 60.7284768,12.0934211 62.0529801,12.4921053 L64.1721854,6.64473684 C64.7682119,6.84407895 65.3642384,7.04342105 66.0264901,7.24276316 C66.6225166,7.44210526 67.218543,7.64144737 67.8145695,7.97368421 L65.6953642,13.8210526 C66.9536424,14.3526316 68.2119205,14.9506579 69.4701987,15.6151316 L72.7152318,10.2993421 C73.3112583,10.6315789 73.8410596,10.8973684 74.3708609,11.2296053 C74.9006623,11.5618421 75.4304636,11.8940789 75.9602649,12.2263158 L72.7152318,17.5421053 C73.5761589,18.1401316 74.3708609,18.8046053 75.1655629,19.4690789 C75.3642384,19.6019737 75.5629139,19.8677632 75.8278146,20.0006579 L80,15.4157895 C80.4635762,15.8144737 80.9933775,16.2796053 81.4569536,16.7447368 C81.9205298,17.2098684 82.384106,17.675 82.781457,18.0736842 L78.6092715,22.6585526 C79.4039735,23.5223684 80.1986755,24.3861842 80.9271523,25.25 C81.0596026,25.3828947 81.1258278,25.4493421 81.192053,25.5822368 L86.2251656,21.9276316 C86.6225166,22.3927632 87.0198675,22.9243421 87.3509934,23.4559211 C87.7483444,23.9210526 88.0794702,24.5190789 88.4768212,25.0506579 L83.4437086,28.7717105 C83.4437086,28.7717105 83.5099338,28.7717105 83.5099338,28.8381579 C84.1721854,29.8348684 84.7682119,30.9644737 85.3642384,32.0940789 L90.9933775,29.5026316 C91.3245033,30.0342105 91.589404,30.6322368 91.8543046,31.2302632 C92.1192053,31.8282895 92.3178808,32.4263158 92.6490066,33.0243421 L87.0198675,35.6157895 C87.4834437,36.8118421 87.9470199,38.0078947 88.2781457,39.2039474 L94.3046358,37.7421053 C94.5033113,38.4065789 94.6357616,39.0046053 94.8344371,39.6026316 C94.9668874,40.2006579 95.1655629,40.8651316 95.2980132,41.4631579 L89.2715232,42.9914474 L89.2715232,42.9914474 C89.5364238,44.2539474 89.6688742,45.5164474 89.8675497,46.8453947 L96.0264901,46.5796053 C96.0927152,47.2440789 96.1589404,47.8421053 96.1589404,48.5065789 C96.2251656,49.1710526 96.1589404,49.7690789 96.2251656,50.4335526 L90.0662252,50.6993421 C90.0662252,51.0980263 90.0662252,51.4967105 90.0662252,51.8953947 C90,52.8256579 90,53.7559211 89.8675497,54.7526316 L96.0264901,55.6828947 C95.9602649,56.2809211 95.8940397,57.0118421 95.7615894,57.5434211 C95.6953642,58.1414474 95.5629139,58.8059211 95.4304636,59.4039474 L89.2715232,58.4736842 C89.0066225,59.8690789 88.6092715,61.1980263 88.2119205,62.5269737 L94.0397351,64.6532895 C93.8410596,65.2513158 93.6423841,65.8493421 93.4437086,66.5138158 C93.1788079,66.8460526 92.9801325,67.4440789 92.7152318,68.0421053 Z" id="Shape-Copy" fill="#FFBC00" fill-rule="nonzero"></path>
                        <path d="M45.213245,47.4434211 L52.794702,47.4434211 C54.129808,47.4434211 55.2264858,47.1244769 56.0847682,46.4865789 C56.9430506,45.848681 57.3721854,44.8121124 57.3721854,43.3768421 C57.3721854,42.5794697 57.2291405,41.9256341 56.9430464,41.4153158 C56.6569522,40.9049974 56.2754991,40.5063172 55.7986755,40.2192632 C55.3218519,39.9322091 54.773513,39.732869 54.1536424,39.6212368 C53.5337717,39.5096047 52.8900696,39.4537895 52.2225166,39.4537895 L45.213245,39.4537895 L45.213245,47.4434211 Z M37.7271523,33.6170526 L53.7483444,33.6170526 C55.3695445,33.6170526 56.8476754,33.7605775 58.1827815,34.0476316 C59.5178875,34.3346856 60.6622469,34.8051283 61.615894,35.4589737 C62.5695412,36.1128191 63.3086066,36.9819419 63.8331126,38.0663684 C64.3576185,39.1507949 64.6198675,40.4903604 64.6198675,42.0851053 C64.6198675,43.8074297 64.2304675,45.2426785 63.4516556,46.3908947 C62.6728438,47.539111 61.5205374,48.4799963 59.994702,49.2135789 C62.0927257,49.819582 63.658273,50.8800714 64.6913907,52.3950789 C65.7245085,53.9100865 66.2410596,55.7360419 66.2410596,57.873 C66.2410596,59.5953244 65.9072881,61.0863884 65.2397351,62.3462368 C64.5721821,63.6060852 63.6741778,64.6346802 62.5456954,65.4320526 C61.4172129,66.229425 60.1298086,66.8194718 58.6834437,67.2022105 C57.2370789,67.5849493 55.751001,67.7763158 54.2251656,67.7763158 L37.7271523,67.7763158 L37.7271523,33.6170526 Z M45.213245,61.9395789 L53.2238411,61.9395789 C53.9549705,61.9395789 54.6543013,61.8678165 55.3218543,61.7242895 C55.9894073,61.5807624 56.5774809,61.3415543 57.0860927,61.0066579 C57.5947045,60.6717615 57.9999985,60.217266 58.3019868,59.6431579 C58.603975,59.0690498 58.7549669,58.3354781 58.7549669,57.4424211 C58.7549669,55.6882018 58.2622566,54.4363459 57.2768212,53.6868158 C56.2913858,52.9372857 54.9880876,52.5625263 53.3668874,52.5625263 L45.213245,52.5625263 L45.213245,61.9395789 Z" id="B" fill="#144AE1"></path>
                        <path d="M43.7086093,29.2368421 L46.3576159,29.2368421 L46.3576159,29.2368421 C46.7233674,29.2368421 47.0198675,29.5333423 47.0198675,29.8990938 L47.0198675,34.5526316 L43.0463576,34.5526316 L43.0463576,29.8990938 L43.0463576,29.8990938 C43.0463576,29.5333423 43.3428578,29.2368421 43.7086093,29.2368421 Z" id="Rectangle-8" fill="#144AE1"></path>
                        <path d="M51.6556291,29.2368421 L54.3046358,29.2368421 L54.3046358,29.2368421 C54.6703873,29.2368421 54.9668874,29.5333423 54.9668874,29.8990938 L54.9668874,34.5526316 L50.9933775,34.5526316 L50.9933775,29.8990938 L50.9933775,29.8990938 C50.9933775,29.5333423 51.2898776,29.2368421 51.6556291,29.2368421 Z" id="Rectangle-8-Copy" fill="#144AE1"></path>
                        <path d="M43.0463576,67.1118421 L47.0198675,67.1118421 L47.0198675,71.7653799 L47.0198675,71.7653799 C47.0198675,72.1311314 46.7233674,72.4276316 46.3576159,72.4276316 L43.7086093,72.4276316 L43.7086093,72.4276316 C43.3428578,72.4276316 43.0463576,72.1311314 43.0463576,71.7653799 L43.0463576,67.1118421 Z" id="Rectangle-8-Copy-2" fill="#144AE1"></path>
                        <path d="M50.9933775,67.1118421 L54.9668874,67.1118421 L54.9668874,71.7653799 L54.9668874,71.7653799 C54.9668874,72.1311314 54.6703873,72.4276316 54.3046358,72.4276316 L51.6556291,72.4276316 L51.6556291,72.4276316 C51.2898776,72.4276316 50.9933775,72.1311314 50.9933775,71.7653799 L50.9933775,67.1118421 Z" id="Rectangle-8-Copy-3" fill="#144AE1"></path>
                    </g>
                </g>
                <path d="M7.96260313,83 C20.6382726,83 28.1033094,83 30.3577137,83 C32.7390408,88.575261 35.3877947,92.9744886 38.3039752,96.1976829 L115.32525,96.1976829 C118.246294,92.5603307 120.745083,88.1611031 122.821616,83 C128.042192,83.050772 135.05853,83.050772 143.87063,83 L152.789865,101 L2.08352071,103.613321 L7.96260313,83 Z" id="Rectangle-9" fill="#0C2C87"></path>
                <rect id="Rectangle-10" fill="#144AE1" x="0" y="101" width="155" height="30"></rect>
            </g>
        </g>
    </g>
</svg>