<svg xmlns="http://www.w3.org/2000/svg" xmlns:xlink="http://www.w3.org/1999/xlink" width="405" height="301" viewBox="0 0 405 301">
    <defs>
        <linearGradient id="a" x1="53.615%" x2="53.615%" y1="98.442%" y2="13.714%">
            <stop offset="0%" stop-color="#FFF"/>
            <stop offset="100%" stop-color="#DBE4FE" stop-opacity=".125"/>
        </linearGradient>
        <linearGradient id="b" x1="114.938%" x2="14.174%" y1="-52.093%" y2="183.181%">
            <stop offset="0%" stop-color="#FFF"/>
            <stop offset="0%" stop-color="#E9EFFF"/>
            <stop offset="41.257%" stop-color="#F1F4FF"/>
            <stop offset="54.803%" stop-color="#ECF1FF"/>
            <stop offset="54.803%" stop-color="#ECF1FF"/>
            <stop offset="54.844%" stop-color="#ECF1FF"/>
            <stop offset="59.131%" stop-color="#EAEFFF"/>
            <stop offset="100%" stop-color="#DBE4FE"/>
        </linearGradient>
        <circle id="c" cx="16" cy="235" r="16"/>
        <circle id="d" cx="85" cy="150" r="10"/>
        <circle id="e" cx="192" cy="208" r="10"/>
        <circle id="f" cx="259" cy="81" r="10"/>
        <circle id="g" cx="8" cy="8" r="8"/>
        <circle id="h" cx="16" cy="16" r="16"/>
        <circle id="i" cx="9.5" cy="9.5" r="9.5"/>
    </defs>
    <g fill="none" fill-rule="evenodd">
        <path fill="url(#a)" d="M18.897 226.153s14.295-71.574 75.63-74.307c60.05 0 48.385 50.323 85.061 56.69 72.857 12.648 31.679-118.79 78.614-126.622 23.098-8.206 35.109 12.572 46.6 23.537 11.491 10.966 60.762 33.845 92.379-85.988 9.517-26.602 6.293-18.206 6.293-18.206V300H16l2.897-73.847zM8.097 229.153l10.8-3-10.8-3" transform="translate(0 1)"/>
        <path stroke="url(#b)" stroke-width="8.1" d="M19 225s14.362-71.313 75.984-74.037c60.332 0 48.612 50.14 85.46 56.484 73.197 12.601 31.826-118.359 78.981-126.161 23.206-8.177 35.273 12.526 46.818 23.451C317.788 115.663 362.515 134.573 393 33" transform="translate(0 1)"/>
        <path stroke="url(#b)" stroke-width="8.1" d="M392.769 44.207L393 33l-5.978 9.482" transform="translate(0 1)"/>
        <g transform="translate(0 1)">
            <use fill="#FFF" xlink:href="#c"/>
            <circle cx="16" cy="235" r="10.938" stroke="#DBE4FE" stroke-width="10.125"/>
        </g>
        <g transform="translate(0 1)">
            <use fill="#FFF" xlink:href="#d"/>
            <circle cx="85" cy="150" r="7" stroke="#B8CAFD" stroke-opacity=".362" stroke-width="6"/>
        </g>
        <g transform="translate(0 1)">
            <use fill="#FFF" xlink:href="#e"/>
            <circle cx="192" cy="208" r="7" stroke="#B8CAFD" stroke-opacity=".336" stroke-width="6"/>
        </g>
        <g transform="translate(0 1)">
            <use fill="#FFF" xlink:href="#f"/>
            <circle cx="259" cy="81" r="7" stroke="#DBE4FE" stroke-opacity=".497" stroke-width="6"/>
        </g>
        <g opacity=".238">
            <g transform="translate(310 217)">
                <use fill="#FFF" xlink:href="#g"/>
                <circle cx="8" cy="8" r="7.5" stroke="#4E7BFA" stroke-opacity=".6"/>
            </g>
            <g stroke="#7195FB" stroke-linecap="square" stroke-width=".5">
                <path d="M314 224.5h8M315 222l1.45 5.8c.028.11.071.115.1 0L318 222M318 222l1.45 5.8c.028.11.071.115.1 0L321 222"/>
            </g>
        </g>
        <g opacity=".145">
            <g transform="translate(140 127)">
                <use fill="#FFF" fill-opacity=".5" xlink:href="#h"/>
                <circle cx="16" cy="16" r="15" stroke="#4E7BFA" stroke-opacity=".6" stroke-width="2"/>
            </g>
            <g stroke="#7195FB" stroke-linecap="square">
                <path d="M148 142.5h17M150 137l3.388 11.614c.062.213.161.216.224 0L157 137"/>
                <path d="M156 137l3.388 11.614c.062.213.161.216.224 0L163 137"/>
            </g>
        </g>
        <g opacity=".216">
            <g transform="translate(299 165)">
                <use fill="#FFF" fill-opacity=".5" xlink:href="#i"/>
                <circle cx="9.5" cy="9.5" r="8.9" stroke="#4E7BFA" stroke-opacity=".6" stroke-width="1.2"/>
            </g>
            <g stroke="#7195FB" stroke-linecap="square" stroke-width=".6">
                <path d="M304 174.5h10M305 171l1.933 6.767c.037.129.095.134.134 0L309 171M309 171l1.933 6.767c.037.129.095.134.134 0L313 171"/>
            </g>
        </g>
        <path fill="#7195FB" d="M191 105v-4.004a.995.995 0 0 0-1-.996c-.552 0-1 .445-1 .996V105h-4.004a.995.995 0 0 0-.996 1c0 .552.445 1 .996 1H189v3.004c0 .55.444.996 1 .996.552 0 1-.445 1-.996V107h3.004c.55 0 .996-.444.996-1 0-.552-.445-1-.996-1H191z" opacity=".104"/>
        <path fill="#FFF" d="M336 141v-5.491a1.5 1.5 0 1 0-3 0V141h-5.491a1.5 1.5 0 1 0 0 3H333v5.491a1.5 1.5 0 1 0 3 0V144h5.491a1.5 1.5 0 1 0 0-3H336z"/>
        <path fill="#144AE1" d="M276 47v-4.004a.995.995 0 0 0-1-.996c-.552 0-1 .445-1 .996V47h-4.004a.995.995 0 0 0-.996 1c0 .552.445 1 .996 1H274v3.004c0 .55.444.996 1 .996.552 0 1-.445 1-.996V49h3.004c.55 0 .996-.444.996-1 0-.552-.445-1-.996-1H276z" opacity=".103"/>
        <path fill="#B8CAFD" d="M241 194v-2.497a.507.507 0 0 0-.5-.503c-.276 0-.5.233-.5.503V194h-2.497a.507.507 0 0 0-.503.5c0 .276.233.5.503.5H240v2.497c0 .278.232.503.5.503.276 0 .5-.233.5-.503V195h2.497a.507.507 0 0 0 .503-.5c0-.276-.233-.5-.503-.5H241z"/>
    </g>
</svg>
